<?xml version="1.0" standalone="no"?>
<!DOCTYPE svg PUBLIC "-//W3C//DTD SVG 20010904//EN"
 "http://www.w3.org/TR/2001/REC-SVG-20010904/DTD/svg10.dtd">
<svg version="1.0" xmlns="http://www.w3.org/2000/svg"
 width="500.000000pt" height="500.000000pt" viewBox="0 0 500.000000 500.000000"
 preserveAspectRatio="xMidYMid meet">
<metadata>
Created by potrace 1.14, written by Peter Selinger 2001-2017
</metadata>
<g transform="translate(0.000000,500.000000) scale(0.100000,-0.100000)"
fill="#000000" stroke="none">
<path d="M2250 4638 c-236 -26 -552 -120 -754 -223 -215 -111 -445 -295 -606
-485 -30 -36 -63 -74 -73 -85 -41 -45 -172 -254 -222 -353 -74 -149 -149 -354
-189 -522 -24 -102 -36 -180 -51 -321 -6 -57 -6 -301 0 -360 4 -49 31 -227 39
-268 37 -178 145 -472 213 -583 13 -21 23 -40 23 -42 0 -10 135 -213 165 -248
23 -27 32 -49 33 -80 8 -138 79 -281 186 -378 22 -19 44 -39 50 -45 115 -104
364 -216 551 -249 111 -20 210 -24 326 -12 54 5 99 3 160 -9 47 -8 100 -18
119 -21 63 -10 444 -13 515 -4 39 5 90 12 115 15 125 16 341 77 525 148 74 29
228 111 304 161 46 31 88 56 92 56 5 0 9 4 9 8 0 5 9 13 19 18 23 11 131 106
216 189 153 151 295 352 398 565 39 80 130 324 142 379 2 9 11 48 20 86 41
172 59 327 59 515 0 106 -11 277 -18 290 -2 3 -6 28 -10 57 -10 86 -70 313
-101 388 -7 17 -21 53 -30 80 -34 103 -132 285 -244 454 -57 86 -211 259 -307
346 -105 95 -189 165 -198 165 -4 0 -39 22 -79 49 -138 93 -268 154 -482 226
-62 21 -218 62 -265 69 -19 3 -48 8 -65 12 -16 3 -41 8 -55 11 -46 8 -454 10
-530 1z"/>
</g>
</svg>
